<svg width="42" height="41" viewBox="0 0 42 41" fill="none" xmlns="http://www.w3.org/2000/svg">
<path d="M23.0432 6.96338L24.5879 5.41866C27.6213 2.38522 32.5598 2.31014 35.6107 5.3261C36.7667 6.47144 37.535 7.95014 37.8075 9.5545C38.0801 11.1589 37.8431 12.8083 37.13 14.2711C36.788 14.9698 36.6728 15.758 36.8003 16.5254C36.928 17.2929 37.2921 18.0013 37.8419 18.5517C38.8529 17.5384 39.6542 16.3358 40.2002 15.0127C40.7462 13.6895 41.0263 12.2718 41.0243 10.8404C41.0221 9.40908 40.7383 7.99213 40.1885 6.67057C39.6387 5.34898 38.8339 4.14868 37.8201 3.13822C33.5539 -1.10386 26.6292 -1.01944 22.375 3.23455L7.65117 17.958L6.44073 16.7476C3.35585 13.6627 3.33619 8.62013 6.47549 5.59008C7.63752 4.47194 9.11797 3.74203 10.7125 3.50109C12.3071 3.26016 13.937 3.52008 15.3776 4.24497C16.0351 4.5819 16.7822 4.70243 17.5123 4.58935C18.2424 4.47627 18.9181 4.13537 19.4429 3.61532L19.4804 3.57798C19.4921 3.56638 19.5013 3.55258 19.5077 3.53736C19.514 3.52217 19.5173 3.50586 19.5173 3.48939C19.5173 3.47293 19.514 3.45662 19.5077 3.44143C19.5013 3.42623 19.4921 3.41243 19.4804 3.40081C17.4539 1.42519 14.7382 0.315486 11.908 0.306514C9.07789 0.297544 6.35523 1.39001 4.31622 3.35274C-0.0760301 7.59283 -0.0603347 14.6437 4.25663 18.9607L18.9761 33.6801L17.4125 35.2437C14.3791 38.2772 9.4404 38.3522 6.38969 35.3363C5.23366 34.191 4.46543 32.7122 4.19289 31.1079C3.92037 29.5036 4.15722 27.8542 4.87019 26.3913C5.21224 25.6925 5.32753 24.9044 5.19995 24.1371C5.07235 23.3696 4.70825 22.6611 4.15851 22.1107C3.14755 23.1241 2.34617 24.3266 1.80012 25.6496C1.25406 26.9729 0.974056 28.3905 0.976085 29.822C0.978114 31.2533 1.26214 32.6703 1.81194 33.9918C2.36174 35.3134 3.16654 36.5137 4.18036 37.5242C8.44627 41.7664 15.3712 41.6822 19.6254 37.428L34.3683 22.6849L35.5833 23.8999C38.6168 26.9334 38.6918 31.8718 35.6759 34.9225C34.5306 36.0788 33.0518 36.8468 31.4475 37.1196C29.8432 37.3921 28.1938 37.1551 26.7309 36.442C26.0319 36.0998 25.2434 35.9844 24.4757 36.1123C23.708 36.24 22.9993 36.6045 22.4489 37.1547C23.4623 38.1657 24.6648 38.9672 25.9878 39.5132C27.3111 40.0592 28.7287 40.3393 30.1602 40.3373C31.5915 40.3351 33.0085 40.0511 34.33 39.5013C35.6516 38.9515 36.852 38.1467 37.8624 37.1329C42.1046 32.867 42.0202 25.942 37.7662 21.688L23.0432 6.96338ZM21.1741 31.4811L9.84977 20.1568L20.8444 9.16239L32.1687 20.4867L21.1741 31.4811Z" fill="url(#paint0_linear_661_4330)"/>
<defs>
<linearGradient id="paint0_linear_661_4330" x1="20.619" y1="-1.66512" x2="25.4445" y2="40.9685" gradientUnits="userSpaceOnUse">
<stop stop-color="#491F59"/>
<stop offset="1" stop-color="#742C80"/>
</linearGradient>
</defs>
</svg>
